<svg width="21" height="16" xmlns="http://www.w3.org/2000/svg" xmlns:xlink="http://www.w3.org/1999/xlink" xml:space="preserve" overflow="hidden"><defs><clipPath id="clip0"><rect x="0" y="0" width="21" height="16"/></clipPath></defs><g clip-path="url(#clip0)"><path d="M17.85 6.85728 13.6499 6.28585 12.075 5.71442 11.2875 5.71442 7.45361 0.428602 8.74997 0.428602C9.13281 0.428602 9.45 0.33486 9.45 0.214301 9.45 0.0937421 9.13281 0 8.74997 0L4.98749 0 4.98749 0.428602 5.51249 0.428602 5.51249 6.28585 3.93751 6.28585 1.75002 3.42858 0.612511 3.42858 0.26255 3.80961 0.26255 6.28585 0.524994 6.28585 0.524994 6.85728 2.09998 6.85728 2.09998 6.95242 0 7.23819 0 8.76197 2.09998 9.04774 2.09998 9.143 0.524994 9.143 0.524994 9.71443 0.26255 9.71443 0.26255 12.1907 0.612511 12.5716 1.75002 12.5716 3.93751 9.71443 5.51249 9.71443 5.51249 15.5717 4.98749 15.5717 4.98749 16.0002 8.74997 16.0002C9.13281 16.0002 9.45 15.9064 9.45 15.786 9.45 15.6654 9.13281 15.5717 8.74997 15.5717L7.45361 15.5717 11.2875 10.2859 12.075 10.2859 13.6499 9.71443 17.85 9.143C21 8.38105 21 8.19357 21 8.00014 21 7.80659 21 7.61911 17.85 6.85728Z" fill-rule="evenodd"/></g></svg>